PathFileType	4	(X/Y/Z)	C:\Users\WrightLab\Desktop\Jo\P5V22.trc
DataRate	CameraRate	NumFrames	NumMarkers	Units	OrigDataRate	OrigDataStartFrame	OrigNumFrames
100.00	100.00	      39	19	mm	100.00	138	      1103
Frame#	Time	Headset_Front			Headset_Back			Headset_Left			Headset_Right			Left_Shoulder			Right_Shoulder			Sternum			C7			Left Elbow			Right Elbow			Left Wrist			Right Wrist			Left ASIS			Right ASIS			S2			Left Knee			Right Knee			Left Ankle			Right Ankle			
		X1	Y1	Z1	X2	Y2	Z2	X3	Y3	Z3	X4	Y4	Z4	X5	Y5	Z5	X6	Y6	Z6	X7	Y7	Z7	X8	Y8	Z8	X9	Y9	Z9	X10	Y10	Z10	X11	Y11	Z11	X12	Y12	Z12	X13	Y13	Z13	X14	Y14	Z14	X15	Y15	Z15	X16	Y16	Z16	X17	Y17	Z17	X18	Y18	Z18	X19	Y19	Z19	

138	1.370																												-551.34711	1185.26758	-1179.72510				-460.52936	1043.59387	-1016.19208	-110.01566	901.14520	-1098.24341	-387.54361	929.70416	-1065.87061				-58.07347	481.81912	-1146.69897	-431.59872	471.03903	-1104.41772				-404.65417	72.45183	-1228.87061	
139	1.380																												-551.36816	1185.28003	-1179.73083				-460.50137	1043.59436	-1016.17865	-109.97149	900.75934	-1097.59814	-387.73126	929.61285	-1065.52979				-58.47764	482.22412	-1146.03674	-431.61591	471.04584	-1104.42627				-404.64877	72.47384	-1228.84985	
140	1.390																												-551.35272	1185.27100	-1179.72668				-460.42978	1043.58984	-1016.14368	-109.94097	900.77551	-1097.57776	-387.73126	929.61285	-1065.52979				-58.29650	482.35257	-1145.76501	-431.79648	470.95813	-1103.95288				-404.66141	72.45502	-1228.90625	
141	1.400																												-551.32855	1185.26135	-1179.72058				-460.27521	1043.72864	-1015.98639	-109.90508	901.33667	-1097.15552	-387.42526	929.87274	-1065.31750				-58.25776	481.85886	-1145.88586	-432.12473	470.97723	-1103.94824				-404.67340	72.43491	-1228.95935	
142	1.410																												-551.36481	1185.27588	-1179.72974				-460.03400	1043.89209	-1015.68048	-109.83669	901.99066	-1097.77930	-387.37497	930.13629	-1065.35986				-58.30158	482.34750	-1145.76563	-432.00488	471.08347	-1103.25415				-404.65891	72.44633	-1228.89221	
143	1.420																												-551.25421	1185.52271	-1179.81396				-459.93747	1043.96118	-1015.46228	-109.75073	901.36688	-1097.05078	-387.37497	930.13629	-1065.35986				-58.35409	482.29749	-1145.04578	-431.71756	471.32672	-1102.79041				-404.64355	72.48504	-1228.82739	
144	1.430																												-551.23212	1185.50940	-1179.80786				-459.90845	1043.97278	-1015.44946	-109.63703	901.89532	-1095.86499	-387.20209	930.28314	-1065.23999				-58.36354	482.29880	-1145.05017	-431.56406	470.83115	-1102.25244				-404.63190	72.51176	-1228.77759	
145	1.440																												-551.16119	1185.62402	-1179.88232				-459.89536	1043.97485	-1015.44330	-109.54507	902.50964	-1096.11609	-386.62918	930.46143	-1064.91309				-58.55081	482.02438	-1144.68384	-431.90088	471.33588	-1102.10266				-404.62769	72.50118	-1228.75464	
146	1.450																												-551.12360	1185.61475	-1179.87341				-459.76630	1044.08142	-1015.25171	-109.42168	902.54309	-1096.03259	-386.54843	930.49158	-1064.64783				-58.75706	481.74509	-1144.65222	-431.83902	470.72305	-1101.78870				-404.65546	72.47375	-1228.88208	
147	1.460																												-551.13245	1185.61462	-1179.87524				-459.78790	1044.05054	-1015.11908	-109.32311	902.55438	-1095.96533	-386.54843	930.49158	-1064.64783				-58.50931	482.10330	-1144.45642	-431.71194	470.83688	-1101.53247				-404.62427	72.51093	-1228.74060	
148	1.470																												-551.13208	1185.61707	-1179.87537				-459.70392	1044.09094	-1015.22253	-109.25761	902.58032	-1095.92139	-386.94556	930.43494	-1064.70227				-58.37539	481.83093	-1144.43140	-431.78339	470.52469	-1101.38489				-404.65131	72.47359	-1228.86206	
149	1.480																												-551.07281	1185.73389	-1179.70605				-459.69443	1044.09448	-1015.21832	-109.20083	902.58496	-1095.88257	-386.37668	930.61487	-1064.40576				-58.41241	481.92242	-1144.62085	-431.78284	470.50970	-1101.38269				-404.61584	72.52993	-1228.70447	
150	1.490																												-551.13226	1185.62964	-1179.87671				-459.69644	1044.05725	-1015.07562	-109.08679	902.50757	-1094.73792	-386.65094	930.62970	-1064.19580				-58.72603	481.92487	-1143.99231	-431.82919	470.52744	-1101.40552				-404.60239	72.55970	-1228.64673	
151	1.500																												-551.05115	1185.72900	-1179.70093				-459.47559	1044.37256	-1014.92523	-109.08134	902.51868	-1094.73462	-386.25339	930.65631	-1063.97534				-58.16001	482.63388	-1143.78650	-432.00406	470.36862	-1101.53442				-404.63440	72.48174	-1228.78247	
152	1.510																												-551.07294	1185.72900	-1179.70557				-459.41306	1044.40662	-1015.02820	-109.04707	902.51331	-1094.71082	-386.25339	930.65631	-1063.97534				-58.19712	482.32639	-1143.76880	-432.04102	470.38004	-1101.55225				-404.62845	72.50234	-1228.75867	
153	1.520																												-551.07111	1185.73584	-1179.70581				-459.42282	1044.41077	-1015.03333	-109.03413	902.51312	-1094.70190	-386.65051	930.59967	-1064.03003				-57.97877	482.40085	-1143.54980	-432.04642	470.38788	-1101.55566				-404.63525	72.51245	-1228.79382	
154	1.530																												-551.06476	1185.73450	-1179.70435				-459.39093	1044.41296	-1015.01813	-108.99448	902.52686	-1094.67529	-386.65051	930.59967	-1064.03003				-57.96020	482.39801	-1143.53870	-432.67462	470.41827	-1101.55933				-404.62903	72.52607	-1228.76709	
155	1.540																												-551.07819	1185.73547	-1179.70728				-459.37372	1044.40723	-1015.00928	-108.97419	902.52112	-1094.66113	-386.25339	930.65631	-1063.97534				-57.77639	482.39972	-1143.39160	-433.07788	470.74878	-1101.36389				-404.64297	72.48194	-1228.82385	
156	1.550																												-551.08716	1185.74414	-1179.71008				-459.27203	1044.49036	-1014.79443	-109.00785	902.42310	-1093.61792	-386.65051	930.59967	-1064.03003				-57.76503	482.40866	-1143.38721	-432.64999	470.43167	-1101.30859				-404.60580	72.54841	-1228.66040	
157	1.560																												-551.09863	1185.74731	-1179.71289				-459.38382	1044.38928	-1014.41376	-108.98872	902.42328	-1093.60474	-386.13544	930.72620	-1063.72803				-57.73765	482.41617	-1143.37341	-432.56808	470.50366	-1101.03394				-404.62918	72.50352	-1228.76245	
158	1.570																												-551.40137	1186.06531	-1179.69495				-459.20770	1044.48242	-1014.76257	-109.02174	902.41376	-1093.62708	-386.13544	930.72620	-1063.72803				-57.71883	482.41901	-1143.36340	-433.36731	471.15991	-1100.46741				-404.61450	72.53619	-1228.69946	
159	1.580																												-551.32880	1186.16248	-1179.77026				-459.13287	1044.52783	-1014.54364	-108.92963	902.91577	-1092.10364	-386.13013	930.69788	-1063.54504				-57.71089	482.40900	-1143.35657	-432.88312	470.91788	-1100.39368				-404.62399	72.52504	-1228.74255	
160	1.590																												-551.39496	1186.06775	-1179.69385				-459.12839	1044.53125	-1014.54181	-108.94688	902.90686	-1092.11499	-386.52725	930.64124	-1063.59973				-57.70393	482.41348	-1143.35364	-432.58578	470.46259	-1100.55615				-404.62778	72.50992	-1228.75720	
161	1.600																												-551.40033	1186.06396	-1179.69458				-459.14999	1044.47974	-1014.43066	-108.91130	902.89825	-1092.09033	-386.35556	930.76453	-1063.35767				-57.68395	482.41370	-1143.34241	-432.97644	470.79736	-1100.35583				-404.63406	72.49609	-1228.78430	
162	1.610																												-551.55762	1185.70618	-1179.41443				-459.08517	1044.53284	-1014.33466	-108.90499	902.89868	-1092.08606	-386.63382	930.97839	-1062.91138				-57.37968	482.28860	-1142.68457	-433.49326	471.00369	-1099.72253				-404.63641	72.50814	-1228.79846	
163	1.620																												-552.18591	1186.10522	-1178.99951				-459.06821	1044.53284	-1014.32648	-108.87883	902.91852	-1092.06885	-386.09918	930.91644	-1062.82007				-57.37175	482.64328	-1142.92236	-433.52850	470.98770	-1099.57117				-404.61789	72.52651	-1228.71350	
164	1.630																												-552.31281	1186.35510	-1179.11560				-459.05838	1044.53748	-1014.32214	-108.84853	902.90961	-1092.04773	-385.92612	931.06335	-1062.69995				-57.85189	482.26987	-1142.12695	-433.35059	471.12875	-1100.14771				-404.63614	72.51176	-1228.79797	
165	1.640																												-552.31952	1186.35852	-1179.11328				-459.06546	1044.48267	-1014.20636	-108.85751	902.91278	-1092.05408	-386.28503	931.24695	-1062.51904				-57.81376	482.27774	-1142.11279	-433.37598	471.11325	-1099.99207				-404.61349	72.52665	-1228.69226	
166	1.650																												-552.20679	1186.14844	-1178.78760				-459.06882	1044.48108	-1014.20782	-108.86282	902.90576	-1092.05737	-386.28503	931.24695	-1062.51904				-57.79786	482.27231	-1142.10437	-433.17453	471.26535	-1099.88782				-404.63342	72.51397	-1228.78540	
167	1.660																												-552.20581	1186.14026	-1178.77600				-459.05078	1044.47925	-1014.19897	-108.85606	902.90912	-1092.05286	-386.28503	931.24695	-1062.51904				-57.62243	482.37482	-1141.86719	-433.14059	471.24823	-1099.87061				-404.62216	72.52650	-1228.73413	
168	1.670																												-552.17792	1186.13428	-1178.77332				-458.90912	1044.58801	-1014.03278	-108.79813	902.91278	-1092.01331	-386.28503	931.24695	-1062.51904				-57.60268	482.37201	-1141.85791	-432.98938	471.35440	-1099.87439				-404.59995	72.58038	-1228.63989	
169	1.680																												-552.17499	1186.13049	-1178.78308				-458.91403	1044.58875	-1014.03522	-108.82349	902.91095	-1092.03064	-386.45306	931.12518	-1062.16040				-57.29533	482.49884	-1141.90210	-431.83463	470.58038	-1100.24133				-404.61725	72.55602	-1228.71741	
170	1.690																												-552.14758	1186.11011	-1178.78784				-458.90814	1044.58740	-1014.03223	-108.78763	902.91125	-1092.00610	-386.33533	930.98364	-1062.47668				-57.14670	482.67361	-1142.22791	-431.53656	470.55878	-1100.35645				-404.62564	72.51512	-1228.74817	
171	1.700																												-552.12140	1186.11279	-1178.77271				-458.90427	1044.58533	-1014.03015	-108.75134	902.91486	-1091.98132	-386.39304	930.90826	-1062.37268				-57.28193	482.49350	-1141.89331	-431.54700	471.25006	-1099.78564				-404.60681	72.56963	-1228.67041	
172	1.710																												-552.09308	1186.10498	-1178.76404				-458.89850	1044.58203	-1014.02704	-108.73961	902.90845	-1091.97302	-386.28503	931.24695	-1062.51904				-57.28093	482.49310	-1141.89258	-431.69794	471.04877	-1099.96655				-404.61938	72.51836	-1228.71875	
173	1.720																												-551.21008	1185.38049	-1179.08582				-458.90329	1044.58472	-1014.02960	-108.73782	902.90662	-1091.97180	-386.39304	930.90826	-1062.37268				-57.75163	481.97275	-1141.40601	-431.27759	470.70453	-1100.15247				-404.60956	72.55563	-1228.68030	
174	1.730																												-551.19794	1185.37646	-1179.08276				-459.03973	1044.48267	-1013.66077	-108.73753	902.90790	-1091.97156	-386.56110	930.78644	-1062.01416				-56.86505	482.26138	-1141.73962	-431.64282	471.06271	-1100.12659				-404.61438	72.56008	-1228.70459	
175	1.740																												-551.20227	1185.37280	-1179.08337				-459.03735	1044.48145	-1013.65948	-108.76431	902.90216	-1091.98975	-386.39304	930.90826	-1062.37268				-57.53265	481.92816	-1141.24438	-431.64349	471.05682	-1100.12610				-404.62796	72.51839	-1228.76001	
176	1.750																												-551.19830	1185.36938	-1179.08215				-458.89136	1044.57800	-1014.02319	-108.74017	902.90588	-1091.97327	-386.39304	930.90826	-1062.37268				-57.52878	481.92603	-1141.24207	-431.62845	471.06622	-1100.12061				-404.61652	72.54314	-1228.71082	
